<svg width="19" height="11" viewBox="0 0 19 11" fill="none" xmlns="http://www.w3.org/2000/svg">
<path fill-rule="evenodd" clip-rule="evenodd" d="M1.41553 0.679443L1.59482 1.12651H2.1626L1.70439 1.40132L1.87871 1.85249L1.41553 1.57358L0.957324 1.84839L1.13164 1.40132L0.668457 1.12651H1.24619L1.41553 0.679443ZM4.64785 0.679443L4.82217 1.12651H5.39492L4.93174 1.40132L5.10605 1.85249L4.64785 1.57358L4.18467 1.84839L4.35898 1.40132L3.90078 1.12651H4.46855L4.64785 0.679443ZM7.8752 0.679443L8.05449 1.12651H8.61729L8.15908 1.40132L8.3334 1.85249L7.87021 1.57358L7.41201 1.84839L7.58633 1.40132L7.12314 1.12651H7.6959L7.8752 0.679443ZM11.1075 0.679443L11.2818 1.12651H11.8546L11.3914 1.40132L11.5707 1.85249L11.1075 1.57358L10.6443 1.84839L10.8236 1.40132L10.3604 1.12651H10.9282L11.1075 0.679443ZM14.3349 0.679443L14.5142 1.12651H15.0819L14.6237 1.40132L14.798 1.85249L14.3349 1.57358L13.8767 1.84839L14.051 1.40132L13.5928 1.12651H14.1605L14.3349 0.679443ZM17.5672 0.679443L17.7415 1.12651H18.3143L17.8511 1.40132L18.0304 1.85249L17.5672 1.57358L17.104 1.84839L17.2833 1.40132L16.8201 1.12651H17.3929L17.5672 0.679443ZM3.03418 1.81147L3.2085 2.25854H3.78125L3.31807 2.53335L3.4874 2.98042L3.03916 2.70562L2.57598 2.98042L2.74033 2.53335L2.29209 2.25854H2.85986L3.03418 1.81147ZM6.26152 1.81147L6.44082 2.25854H7.00859L6.54541 2.53335L6.72471 2.98042L6.26152 2.70562L5.79834 2.98042L5.97764 2.53335L5.51445 2.25854H6.08721L6.26152 1.81147ZM9.49385 1.81147L9.66816 2.25854H10.2409L9.77773 2.53335L9.95205 2.98042L9.49385 2.70562L9.03066 2.98042L9.20498 2.53335L8.74678 2.25854H9.31455L9.49385 1.81147ZM12.7212 1.81147L12.9005 2.25854H13.4683L13.0051 2.53335L13.1844 2.98042L12.7212 2.70562L12.263 2.98042L12.4373 2.53335L11.9741 2.25854H12.5519L12.7212 1.81147ZM15.9535 1.81147L16.1278 2.25854H16.7006L16.2374 2.53335L16.4117 2.98042L15.9535 2.70562L15.4903 2.98042L15.6646 2.53335L15.2064 2.25854H15.7742L15.9535 1.81147ZM1.41553 2.9394L1.59482 3.39468H2.1626L1.70439 3.66948L1.87871 4.11655L1.41553 3.83765L0.957324 4.11655L1.13164 3.66538L0.668457 3.39058H1.24619L1.41553 2.9394ZM4.64785 2.9394L4.82217 3.39058H5.39492L4.93174 3.66538L5.10605 4.11245L4.64785 3.83354L4.18467 4.11245L4.35898 3.66128L3.90078 3.38647H4.46855L4.64785 2.9394ZM7.8752 2.9394L8.05449 3.39058H8.61729L8.15908 3.66538L8.3334 4.11245L7.87021 3.83354L7.41201 4.11245L7.58633 3.66128L7.12314 3.38647H7.6959L7.8752 2.9394ZM11.1075 2.9394L11.2818 3.39058H11.8546L11.3914 3.66538L11.5707 4.11245L11.1075 3.83354L10.6443 4.11245L10.8236 3.66128L10.3604 3.38647H10.9282L11.1075 2.9394ZM14.3349 2.9394L14.5142 3.39058H15.0819L14.6237 3.66538L14.798 4.11245L14.3349 3.83354L13.8767 4.11245L14.051 3.66128L13.5928 3.38647H14.1605L14.3349 2.9394ZM17.5672 2.9394L17.7415 3.39058H18.3143L17.8511 3.66538L18.0304 4.11245L17.5672 3.83354L17.104 4.11245L17.2833 3.66128L16.8201 3.38647H17.3929L17.5672 2.9394ZM3.03418 4.07144L3.2085 4.51851H3.78125L3.31807 4.79331L3.49238 5.24448L3.03418 4.96558L2.571 5.24038L2.74531 4.79331L2.28711 4.51851H2.85488L3.03418 4.07144ZM6.26152 4.07144L6.44082 4.51851H7.00859L6.54541 4.79331L6.72471 5.24448L6.26152 4.96558L5.79834 5.24038L5.97764 4.79331L5.51445 4.51851H6.08721L6.26152 4.07144ZM9.49385 4.07144L9.66816 4.51851H10.2409L9.77773 4.79331L9.95205 5.24448L9.49385 4.96558L9.03066 5.24038L9.20498 4.79331L8.74678 4.51851H9.31455L9.49385 4.07144ZM12.7212 4.07144L12.9005 4.51851H13.4683L13.0101 4.79331L13.1844 5.24448L12.7212 4.96558L12.263 5.24038L12.4373 4.79331L11.9741 4.51851H12.5519L12.7212 4.07144ZM15.9535 4.07144L16.1278 4.51851H16.7006L16.2374 4.79331L16.4117 5.24448L15.9535 4.96558L15.4903 5.24038L15.6646 4.79331L15.2064 4.51851H15.7742L15.9535 4.07144ZM1.41553 5.20347L1.59482 5.65054H2.1626L1.70439 5.92534L1.87871 6.37651L1.41553 6.09761L0.957324 6.37241L1.13164 5.92534L0.668457 5.65054H1.24619L1.41553 5.20347ZM4.64785 5.20347L4.82217 5.65054H5.39492L4.93174 5.92534L5.10605 6.37241L4.64785 6.09761L4.18467 6.37241L4.35898 5.92534L3.90078 5.65054H4.46855L4.64785 5.20347ZM7.8752 5.20347L8.05449 5.65054H8.61729L8.15908 5.92534L8.3334 6.37651L7.87021 6.09761L7.41201 6.37241L7.58633 5.92534L7.12314 5.65054H7.6959L7.8752 5.20347ZM11.1075 5.20347L11.2818 5.65054H11.8546L11.3914 5.92534L11.5707 6.37651L11.1075 6.09761L10.6443 6.37241L10.8236 5.92534L10.3604 5.65054H10.9282L11.1075 5.20347ZM14.3349 5.20347L14.5142 5.65054H15.0819L14.6237 5.92534L14.798 6.37651L14.3349 6.09761L13.8767 6.37241L14.051 5.92534L13.5928 5.65054H14.1605L14.3349 5.20347ZM17.5672 5.20347L17.7415 5.65054H18.3143L17.8511 5.92534L18.0304 6.37651L17.5672 6.09761L17.104 6.37241L17.2833 5.92534L16.8201 5.65054H17.3929L17.5672 5.20347ZM3.03418 6.3355L3.2085 6.78257H3.78125L3.31807 7.05737L3.49238 7.50444L3.03418 7.22554L2.571 7.50444L2.74531 7.05327L2.28711 6.77847H2.85488L3.03418 6.3355ZM6.26152 6.3355L6.44082 6.78257H7.00859L6.54541 7.05737L6.72471 7.50444L6.26152 7.22554L5.79834 7.50444L5.97764 7.05327L5.51445 6.77847H6.08721L6.26152 6.3355ZM9.49385 6.3355L9.66816 6.78257H10.2409L9.77773 7.05737L9.95205 7.50444L9.49385 7.22554L9.03066 7.50444L9.20498 7.05327L8.74678 6.77847H9.31455L9.49385 6.3355ZM12.7212 6.3355L12.9005 6.78257H13.4683L13.0101 7.05737L13.1844 7.50444L12.7212 7.22554L12.263 7.50444L12.4373 7.05327L11.9741 6.77847H12.5519L12.7212 6.3355ZM15.9535 6.3355L16.1278 6.78257H16.7006L16.2374 7.05737L16.4117 7.50444L15.9535 7.22554L15.4903 7.50444L15.6646 7.05327L15.2064 6.77847H15.7742L15.9535 6.3355ZM1.41553 7.46343L1.59482 7.9146H2.1626L1.70439 8.1894L1.87871 8.63237L1.41553 8.35757L0.957324 8.63237L1.13164 8.1853L0.668457 7.9105H1.24619L1.41553 7.46343ZM4.64785 7.46343L4.82217 7.9146H5.39492L4.93174 8.1894L5.11103 8.63237L4.64785 8.35757L4.18467 8.63237L4.36396 8.1853L3.90078 7.9105H4.46855L4.64785 7.46343ZM7.8752 7.46343L8.05449 7.9146H8.61729L8.15908 8.1894L8.3334 8.63237L7.87021 8.35757L7.41201 8.63237L7.58633 8.1853L7.12314 7.9105H7.6959L7.8752 7.46343ZM11.1075 7.46343L11.2818 7.9146H11.8546L11.3914 8.1894L11.5707 8.63237L11.1075 8.35757L10.6443 8.63237L10.8236 8.1853L10.3604 7.9105H10.9282L11.1075 7.46343ZM14.3349 7.46343L14.5142 7.9146H15.0819L14.6237 8.1894L14.798 8.63237L14.3349 8.35757L13.8767 8.63237L14.051 8.1853L13.5928 7.9105H14.1605L14.3349 7.46343ZM17.5672 7.46343L17.7415 7.9146H18.3143L17.8511 8.1894L18.0304 8.63237L17.5672 8.35757L17.104 8.63237L17.2833 8.1853L16.8201 7.9105H17.3929L17.5672 7.46343ZM3.03418 8.59546L3.2085 9.04253H3.78125L3.31807 9.31733L3.49238 9.76851L3.03418 9.4896L2.571 9.7644L2.74531 9.31733L2.28711 9.04253H2.85488L3.03418 8.59546ZM6.26152 8.59546L6.44082 9.04253H7.00859L6.54541 9.31733L6.72471 9.76851L6.26152 9.4896L5.79834 9.7644L5.97764 9.31733L5.51445 9.04253H6.08721L6.26152 8.59546ZM9.49385 8.59546L9.66816 9.04253H10.2409L9.77773 9.31733L9.95205 9.76851L9.49385 9.4896L9.03066 9.7644L9.20498 9.31733L8.74678 9.04253H9.31455L9.49385 8.59546ZM12.7212 8.59546L12.9005 9.04253H13.4683L13.0101 9.31733L13.1844 9.76851L12.7212 9.4896L12.263 9.7644L12.4373 9.31733L11.9741 9.04253H12.5519L12.7212 8.59546ZM15.9535 8.59546L16.1278 9.04253H16.7006L16.2374 9.31733L16.4117 9.76851L15.9535 9.4896L15.4903 9.7644L15.6646 9.31733L15.2064 9.04253H15.7742L15.9535 8.59546ZM1.41553 9.72749L1.59482 10.1746H2.1626L1.70439 10.4494L1.87871 10.8964L1.41553 10.6216L0.957324 10.8964L1.13164 10.4453L0.668457 10.1705H1.24619L1.41553 9.72749ZM4.64785 9.72749L4.82217 10.1746H5.39492L4.93174 10.4494L5.11103 10.8964L4.64785 10.6216L4.18467 10.8964L4.36396 10.4453L3.90078 10.1705H4.46855L4.64785 9.72749ZM7.8752 9.72749L8.05449 10.1746H8.61729L8.16904 10.4494L8.34336 10.8964L7.88018 10.6216L7.42197 10.8964L7.59629 10.4453L7.13311 10.1705H7.70586L7.8752 9.72749ZM11.1075 9.72749L11.2818 10.1746H11.8546L11.3914 10.4494L11.5707 10.8964L11.1075 10.6216L10.6443 10.8964L10.8236 10.4453L10.3604 10.1705H10.9282L11.1075 9.72749ZM14.3349 9.72749L14.5142 10.1746H15.0819L14.6237 10.4494L14.798 10.8964L14.3349 10.6216L13.8767 10.8964L14.051 10.4453L13.5928 10.1705H14.1605L14.3349 9.72749ZM17.5672 9.72749L17.7415 10.1746H18.3143L17.8511 10.4494L18.0304 10.8964L17.5672 10.6216L17.104 10.8964L17.2833 10.4453L16.8201 10.1705H17.3929L17.5672 9.72749Z" fill="white"/>
</svg>
